# Blender 4.3.2
# www.blender.org
mtllib box.mtl
o Cube.005
v -24.180805 -0.000078 -40.146961
v -24.180805 1.050078 -40.146961
v -24.180805 -0.000078 -43.152447
v -24.180805 1.050078 -43.152447
v -22.180805 -0.000078 -40.146961
v -22.180805 1.050078 -40.146961
v -22.180805 -0.000078 -43.152447
v -22.180805 1.050078 -43.152447
v -22.399279 1.050078 -43.045090
v -23.962330 1.050078 -43.045090
v -23.962330 1.050078 -40.254318
v -22.399279 1.050078 -40.254318
v -23.962330 0.358547 -43.045090
v -22.399279 0.358547 -43.045090
v -22.399279 0.358547 -40.254318
v -23.962330 0.358547 -40.254318
vn -1.0000 -0.0000 -0.0000
vn -0.0000 -0.0000 -1.0000
vn 1.0000 -0.0000 -0.0000
vn -0.0000 -0.0000 1.0000
vn -0.0000 -1.0000 -0.0000
vn -0.0000 1.0000 -0.0000
vt 0.375000 0.000000
vt 0.625000 0.000000
vt 0.625000 0.250000
vt 0.375000 0.250000
vt 0.625000 0.500000
vt 0.375000 0.500000
vt 0.625000 0.750000
vt 0.375000 0.750000
vt 0.625000 1.000000
vt 0.375000 1.000000
vt 0.125000 0.500000
vt 0.125000 0.750000
vt 0.858870 0.733870
vt 0.641130 0.733870
vt 0.875000 0.500000
vt 0.858870 0.516130
vt 0.641130 0.516130
vt 0.875000 0.750000
s 0
f 1/1/1 2/2/1 4/3/1 3/4/1
f 3/4/2 4/3/2 8/5/2 7/6/2
f 7/6/3 8/5/3 6/7/3 5/8/3
f 5/8/4 6/7/4 2/9/4 1/10/4
f 3/11/5 7/6/5 5/8/5 1/12/5
f 11/13/2 12/14/2 15/14/2 16/13/2
f 8/5/6 4/15/6 10/16/6 9/17/6
f 4/15/6 2/18/6 11/13/6 10/16/6
f 2/18/6 6/7/6 12/14/6 11/13/6
f 6/7/6 8/5/6 9/17/6 12/14/6
f 14/17/6 13/16/6 16/13/6 15/14/6
f 12/14/1 9/17/1 14/17/1 15/14/1
f 10/16/3 11/13/3 16/13/3 13/16/3
f 9/17/4 10/16/4 13/16/4 14/17/4
