# Blender 4.3.2
# www.blender.org
mtllib door.mtl
o Cube.001
v 3.725511 6.260211 -450.695770
v 3.493263 6.491784 -450.694672
v 3.783076 5.797578 -450.697937
v 3.781310 6.126552 -450.696411
v 3.498967 5.429752 -450.699677
v 3.728717 5.663421 -450.698578
v 3.039615 5.372206 -450.699951
v 3.366299 5.373685 -450.699951
v 2.674096 5.658642 -450.698608
v 2.906344 5.427068 -450.699707
v 2.616530 6.121278 -450.696411
v 2.618297 5.792301 -450.697968
v 2.900640 6.489100 -450.694672
v 2.670890 6.255432 -450.695801
v 3.359998 6.546648 -450.694427
v 3.033314 6.545168 -450.694427
v 3.879588 6.414307 -450.695038
v 3.644751 6.648461 -450.693939
v 4.000329 5.796725 -450.697968
v 3.998546 6.129369 -450.696381
v 3.652129 5.274451 -450.700409
v 3.884442 5.510729 -450.699310
v 3.038965 5.153428 -450.700989
v 3.369296 5.154922 -450.700989
v 2.520018 5.504549 -450.699341
v 2.754856 5.270388 -450.700439
v 2.399278 6.122128 -450.696411
v 2.401067 5.789480 -450.697998
v 2.747478 6.644402 -450.693939
v 2.515164 6.408127 -450.695068
v 3.360642 6.765421 -450.693390
v 3.030317 6.763927 -450.693390
v 3.718542 6.760587 -450.693390
v 3.990190 6.489727 -450.694672
v 4.131564 5.771248 -450.698090
v 4.129500 6.156034 -450.696259
v 3.727129 5.163007 -450.700958
v 3.995848 5.436312 -450.699646
v 3.013790 5.021294 -450.701630
v 3.395888 5.023024 -450.701599
v 2.409416 5.429130 -450.699677
v 2.681064 5.158269 -450.700958
v 2.268043 6.147601 -450.696289
v 2.270113 5.762820 -450.698120
v 2.672484 6.755847 -450.693420
v 2.403758 6.482540 -450.694702
v 3.385823 6.897556 -450.692749
v 3.003719 6.895825 -450.692749
v 3.816879 6.823521 -450.693115
v 4.051717 6.589365 -450.694214
v 4.245076 5.797834 -450.697937
v 4.243286 6.130481 -450.696381
v 3.826127 5.100958 -450.701233
v 4.058440 5.337233 -450.700134
v 3.040291 4.906964 -450.702148
v 3.370617 4.908458 -450.702148
v 2.347896 5.329489 -450.700165
v 2.582734 5.095328 -450.701263
v 2.154537 6.121023 -450.696411
v 2.156320 5.788375 -450.697998
v 2.573479 6.817894 -450.693146
v 2.341167 6.581620 -450.694244
v 3.359321 7.011892 -450.692230
v 3.028990 7.010391 -450.692230
v -5.000000 0.000000 -449.000000
v -5.000000 14.000000 -449.000000
v -5.000000 0.000000 -451.000000
v -5.000000 14.000000 -451.000000
v 5.000000 0.000000 -449.000000
v 5.000000 14.000000 -449.000000
v 5.000000 0.000000 -451.000000
v 5.000000 14.000000 -451.000000
v 3.038383 4.924136 -449.000000
v 3.368712 4.925635 -449.000000
v 3.011882 5.038465 -449.000000
v 3.393985 5.040195 -449.000000
v 2.580827 5.112495 -449.000000
v 3.824224 5.118124 -449.000000
v 3.037062 5.170593 -449.000000
v 3.367389 5.172087 -449.000000
v 2.679162 5.175429 -449.000000
v 3.725222 5.180168 -449.000000
v 2.752954 5.287547 -449.000000
v 3.650227 5.291608 -449.000000
v 2.345990 5.346642 -449.000000
v 4.056538 5.354387 -449.000000
v 3.037709 5.389358 -449.000000
v 3.364393 5.390837 -449.000000
v 2.904443 5.444218 -449.000000
v 2.407515 5.446277 -449.000000
v 3.497065 5.446901 -449.000000
v 3.993948 5.453462 -449.000000
v 2.518117 5.521692 -449.000000
v 3.882541 5.527872 -449.000000
v 2.672195 5.675783 -449.000000
v 3.726816 5.680559 -449.000000
v 2.268209 5.779953 -449.000000
v 4.129664 5.788383 -449.000000
v 2.154421 5.805505 -449.000000
v 2.399163 5.806615 -449.000000
v 2.616397 5.809433 -449.000000
v 3.998430 5.813857 -449.000000
v 3.781177 5.814708 -449.000000
v 4.243172 5.814963 -449.000000
v 2.152636 6.138136 -449.000000
v 2.614633 6.138392 -449.000000
v 2.397380 6.139244 -449.000000
v 2.433985 6.229577 -449.000000
v 3.779412 6.143668 -449.000000
v 3.996644 6.146487 -449.000000
v 4.241389 6.147595 -449.000000
v 2.266145 6.164719 -449.000000
v 4.127599 6.173148 -449.000000
v 2.668993 6.272542 -449.000000
v 3.723614 6.277320 -449.000000
v 2.513268 6.425228 -449.000000
v 3.877692 6.431407 -449.000000
v 2.401862 6.499640 -449.000000
v 2.898744 6.506200 -449.000000
v 3.988295 6.506823 -449.000000
v 3.491367 6.508883 -449.000000
v 3.031415 6.562264 -449.000000
v 3.358098 6.563743 -449.000000
v 2.339271 6.598714 -449.000000
v 4.049818 6.606458 -449.000000
v 2.745583 6.661493 -449.000000
v 3.642856 6.665555 -449.000000
v 2.670585 6.772933 -449.000000
v 3.716648 6.777670 -449.000000
v 3.028418 6.781015 -449.000000
v 3.358748 6.782510 -449.000000
v 2.571586 6.834977 -449.000000
v 3.814981 6.840607 -449.000000
v 3.001825 6.912908 -449.000000
v 3.383925 6.914638 -449.000000
v 3.357424 7.028964 -449.000000
v 3.027097 7.027467 -449.000000
vn -0.3806 -0.9247 0.0089
vn -0.3892 0.9211 -0.0097
vn 0.3806 0.9247 -0.0089
vn 0.9228 0.3853 -0.0029
vn 0.9268 -0.3756 0.0048
vn 0.3892 -0.9211 0.0097
vn -0.9268 0.3756 -0.0048
vn 0.3807 0.9247 -0.0089
vn -0.9228 -0.3853 0.0029
vn -0.0000 -0.0047 1.0000
vn -0.7130 0.7011 -0.0079
vn -1.0000 -0.0054 -0.0011
vn -0.7061 -0.7081 0.0064
vn 0.0045 -0.9999 0.0101
vn 0.7130 -0.7011 0.0079
vn 1.0000 0.0054 0.0011
vn 0.7060 0.7081 -0.0064
vn -0.5633 0.8262 -0.0090
vn 0.1906 0.9816 -0.0097
vn 0.8296 0.5583 -0.0047
vn 0.9823 -0.1872 0.0030
vn 0.5633 -0.8262 0.0090
vn -0.1905 -0.9816 0.0097
vn -0.8296 -0.5583 0.0047
vn -0.9823 0.1872 -0.0030
vn -0.8508 0.5254 -0.0063
vn -0.2280 0.9736 -0.0101
vn 0.5310 0.8473 -0.0080
vn 0.9742 0.2258 -0.0012
vn 0.8508 -0.5254 0.0063
vn 0.2280 -0.9736 0.0101
vn -0.5310 -0.8473 0.0080
vn -0.9742 -0.2258 0.0012
vn -1.0000 -0.0000 -0.0000
vn -0.0000 -0.0000 -1.0000
vn 1.0000 -0.0000 -0.0000
vn -0.0000 -0.0000 1.0000
vn -0.0000 -1.0000 -0.0000
vn -0.0000 1.0000 -0.0000
vn -0.8353 0.5498 -0.0065
vn 0.5554 0.8315 -0.0078
vn -0.0045 0.9999 -0.0101
vn 0.7061 0.7081 -0.0064
vn -0.1995 0.9798 -0.0101
vn -0.9803 -0.1977 0.0009
vn -0.2191 -0.9757 0.0096
vn -0.8454 -0.5341 0.0044
vn 0.9765 -0.2154 0.0033
vn 0.5390 -0.8422 0.0091
vn 0.9803 0.1977 -0.0009
vn 0.2191 0.9757 -0.0096
vn -0.5554 -0.8315 0.0078
vn 0.1995 -0.9798 0.0101
vn -0.9765 0.2154 -0.0033
vn 0.8454 0.5341 -0.0044
vn -0.5391 0.8422 -0.0091
vn 0.8353 -0.5498 0.0065
vt 0.715015 0.647264
vt 0.703479 0.647344
vt 0.703479 0.578436
vt 0.715015 0.578379
vt 0.226445 0.701216
vt 0.214919 0.701271
vt 0.214919 0.632077
vt 0.226445 0.632045
vt 0.208981 0.701296
vt 0.197444 0.701217
vt 0.197444 0.632045
vt 0.208981 0.632102
vt 0.662442 0.647629
vt 0.650829 0.647452
vt 0.650829 0.578379
vt 0.662442 0.578501
vt 0.191506 0.701166
vt 0.179896 0.700998
vt 0.179897 0.632045
vt 0.187839 0.632122
vt 0.191506 0.632157
vt 0.391735 0.722116
vt 0.380210 0.722061
vt 0.380210 0.653175
vt 0.391735 0.653208
vt 0.679990 0.647451
vt 0.668380 0.647618
vt 0.668380 0.578492
vt 0.679990 0.578379
vt 0.257321 0.647363
vt 0.251910 0.647326
vt 0.251910 0.578399
vt 0.257321 0.578426
vt 0.606642 0.647573
vt 0.601236 0.647547
vt 0.601236 0.578405
vt 0.606642 0.578420
vt 0.625342 0.647522
vt 0.619930 0.647559
vt 0.619931 0.578406
vt 0.625342 0.578379
vt 0.517877 0.647726
vt 0.512430 0.647808
vt 0.512430 0.578711
vt 0.517877 0.578654
vt 0.147323 0.601112
vt 0.150776 0.592940
vt 0.159608 0.601860
vt 0.151466 0.605296
vt 0.536704 0.647449
vt 0.531258 0.647527
vt 0.531258 0.578519
vt 0.536704 0.578466
vt 0.129179 0.595916
vt 0.125863 0.587657
vt 0.138353 0.587712
vt 0.135037 0.595941
vt 0.238621 0.647312
vt 0.233215 0.647338
vt 0.233215 0.578400
vt 0.238621 0.578385
vt 0.697541 0.647332
vt 0.685928 0.647509
vt 0.685928 0.578501
vt 0.697541 0.578379
vt 0.107661 0.623351
vt 0.099462 0.626650
vt 0.099463 0.614090
vt 0.107661 0.617460
vt 0.585839 0.647826
vt 0.580393 0.647747
vt 0.580393 0.578676
vt 0.585839 0.578729
vt 0.156555 0.617673
vt 0.164754 0.614375
vt 0.164754 0.626934
vt 0.156555 0.623565
vt 0.151466 0.635897
vt 0.159608 0.639404
vt 0.150776 0.648247
vt 0.147324 0.640045
vt 0.135038 0.645109
vt 0.138353 0.653367
vt 0.125863 0.653313
vt 0.129179 0.645083
vt 0.116893 0.639912
vt 0.113440 0.648084
vt 0.104608 0.639164
vt 0.112750 0.635728
vt 0.112750 0.605128
vt 0.104608 0.601620
vt 0.113440 0.592778
vt 0.116893 0.600980
vt 0.546162 0.647318
vt 0.546162 0.578379
vt 0.502966 0.647958
vt 0.502966 0.578816
vt 0.595297 0.647957
vt 0.595297 0.578816
vt 0.567012 0.647549
vt 0.567012 0.578541
vt 0.561565 0.647466
vt 0.552101 0.647317
vt 0.552101 0.578379
vt 0.561565 0.578484
vt 0.399585 0.722642
vt 0.399585 0.653690
vt 0.404097 0.653666
vt 0.404097 0.722604
vt 0.094129 0.612992
vt 0.100081 0.598568
vt 0.685928 0.722518
vt 0.685928 0.653447
vt 0.691262 0.653463
vt 0.691262 0.722539
vt 0.100081 0.642177
vt 0.094129 0.627701
vt 0.249178 0.722473
vt 0.249178 0.653302
vt 0.253726 0.653351
vt 0.253726 0.722544
vt 0.124795 0.658671
vt 0.110425 0.652623
vt 0.399585 0.647579
vt 0.399585 0.578385
vt 0.404954 0.578438
vt 0.404954 0.647658
vt 0.153792 0.652812
vt 0.139422 0.658735
vt 0.360835 0.722707
vt 0.360835 0.653579
vt 0.365346 0.653603
vt 0.365346 0.722745
vt 0.170087 0.628032
vt 0.164135 0.642457
vt 0.601236 0.722535
vt 0.601236 0.653527
vt 0.606569 0.653511
vt 0.606570 0.722515
vt 0.164135 0.598847
vt 0.170087 0.613323
vt 0.668380 0.722514
vt 0.668380 0.653605
vt 0.672928 0.653556
vt 0.672928 0.722443
vt 0.139422 0.582353
vt 0.153792 0.588401
vt 0.233215 0.722288
vt 0.233215 0.653403
vt 0.238584 0.653350
vt 0.238584 0.722209
vt 0.110424 0.588212
vt 0.124794 0.582289
vt 0.296415 0.647259
vt 0.286845 0.647409
vt 0.286845 0.578491
vt 0.296415 0.578385
vt 0.282804 0.647467
vt 0.282804 0.578529
vt 0.090258 0.610216
vt 0.095404 0.597746
vt 0.695884 0.653458
vt 0.695884 0.722529
vt 0.095404 0.642958
vt 0.090258 0.630443
vt 0.631280 0.722861
vt 0.631280 0.653668
vt 0.635297 0.653696
vt 0.635297 0.722901
vt 0.122051 0.662552
vt 0.109628 0.657323
vt 0.409610 0.578486
vt 0.409610 0.647728
vt 0.154589 0.657519
vt 0.142166 0.662640
vt 0.631280 0.647521
vt 0.631280 0.578379
vt 0.635321 0.578418
vt 0.635321 0.647579
vt 0.173958 0.630808
vt 0.168813 0.643278
vt 0.611191 0.653516
vt 0.611191 0.722525
vt 0.168812 0.598066
vt 0.173958 0.610581
vt 0.512915 0.722811
vt 0.512915 0.653924
vt 0.516931 0.653896
vt 0.516931 0.722771
vt 0.142166 0.578472
vt 0.154589 0.583701
vt 0.243240 0.653302
vt 0.243240 0.722139
vt 0.109627 0.583505
vt 0.122050 0.578385
vt 0.915677 0.572440
vt 0.915677 0.002970
vt 0.997031 0.002969
vt 0.997031 0.572440
vt 0.002969 0.572446
vt 0.002969 0.002969
vt 0.409739 0.002969
vt 0.409739 0.572446
vt 0.828385 0.572440
vt 0.828385 0.002969
vt 0.909739 0.002970
vt 0.909739 0.572440
vt 0.415677 0.572441
vt 0.446462 0.335908
vt 0.451080 0.336990
vt 0.456418 0.335953
vt 0.461132 0.347586
vt 0.456600 0.350613
vt 0.454054 0.354643
vt 0.463504 0.364253
vt 0.467531 0.361730
vt 0.470582 0.357197
vt 0.482087 0.362058
vt 0.481005 0.367423
vt 0.482033 0.372083
vt 0.495470 0.372144
vt 0.496547 0.367494
vt 0.495523 0.362119
vt 0.507080 0.357362
vt 0.510082 0.361922
vt 0.514082 0.364482
vt 0.523634 0.354958
vt 0.521131 0.350905
vt 0.516632 0.347838
vt 0.521471 0.336248
vt 0.526798 0.337332
vt 0.531426 0.336293
vt 0.531499 0.322763
vt 0.822446 0.572441
vt 0.415677 0.985145
vt 0.415677 0.578379
vt 0.497027 0.578383
vt 0.497027 0.985148
vt 0.084320 0.578385
vt 0.084320 0.985151
vt 0.002969 0.985154
vt 0.002969 0.578388
vt 0.621675 0.653511
vt 0.621675 0.722684
vt 0.617130 0.722748
vt 0.617130 0.653554
vt 0.393647 0.578385
vt 0.393647 0.647223
vt 0.380210 0.647237
vt 0.380210 0.578399
vt 0.311917 0.578472
vt 0.311917 0.647392
vt 0.302353 0.647260
vt 0.302353 0.578385
vt 0.267778 0.653692
vt 0.267778 0.722645
vt 0.263260 0.722598
vt 0.263260 0.653658
vt 0.374271 0.578399
vt 0.374271 0.647641
vt 0.360835 0.647627
vt 0.360835 0.578385
vt 0.644891 0.578524
vt 0.644891 0.647730
vt 0.272824 0.578428
vt 0.272824 0.647587
vt 0.263260 0.647720
vt 0.263260 0.578515
vt 0.292760 0.653416
vt 0.292760 0.722489
vt 0.287429 0.722498
vt 0.287429 0.653420
vt 0.713504 0.653282
vt 0.713504 0.722477
vt 0.708134 0.722557
vt 0.708134 0.653337
vt 0.345990 0.653531
vt 0.345990 0.722533
vt 0.341366 0.722552
vt 0.341366 0.653545
vt 0.276866 0.578385
vt 0.276866 0.647525
vt 0.307008 0.653439
vt 0.307008 0.722299
vt 0.302353 0.722231
vt 0.302353 0.653393
vt 0.556112 0.653915
vt 0.556112 0.722801
vt 0.552101 0.722769
vt 0.552101 0.653896
vt 0.312378 0.653494
vt 0.312378 0.722380
vt 0.282804 0.722478
vt 0.282805 0.653405
vt 0.335428 0.578521
vt 0.335428 0.647594
vt 0.321898 0.647394
vt 0.321898 0.578385
vt 0.354896 0.578385
vt 0.354896 0.647392
vt 0.341366 0.647592
vt 0.341366 0.578521
vt 0.326417 0.653533
vt 0.326417 0.722659
vt 0.321898 0.722706
vt 0.321898 0.653566
vt 0.526882 0.321681
vt 0.521544 0.322718
vt 0.520055 0.319043
vt 0.516830 0.311085
vt 0.521361 0.308058
vt 0.523907 0.304028
vt 0.514457 0.294418
vt 0.510430 0.296941
vt 0.507380 0.301474
vt 0.495875 0.296613
vt 0.496957 0.291248
vt 0.495929 0.286588
vt 0.482492 0.286527
vt 0.481414 0.291177
vt 0.482438 0.296552
vt 0.470881 0.301309
vt 0.467880 0.296749
vt 0.463880 0.294189
vt 0.454327 0.303713
vt 0.456830 0.307766
vt 0.461329 0.310834
vt 0.456490 0.322423
vt 0.451164 0.321339
vt 0.446535 0.322378
vt 0.415677 0.002969
vt 0.822446 0.002969
vt 0.179896 0.608956
vt 0.179896 0.595575
vt 0.182137 0.590126
vt 0.191533 0.580656
vt 0.196942 0.578396
vt 0.210231 0.578385
vt 0.215640 0.580636
vt 0.225036 0.590090
vt 0.227277 0.595535
vt 0.227277 0.608916
vt 0.225036 0.614365
vt 0.215640 0.623835
vt 0.210231 0.626095
vt 0.196942 0.626106
vt 0.191533 0.623855
vt 0.182137 0.614401
vt 0.351322 0.653535
vt 0.351322 0.722542
vt 0.703479 0.722625
vt 0.703479 0.653383
vt 0.315960 0.578515
vt 0.315960 0.647455
vt 0.506977 0.653896
vt 0.506976 0.723090
vt 0.502966 0.723121
vt 0.502966 0.653915
vt 0.655375 0.653610
vt 0.655375 0.722517
vt 0.650829 0.722453
vt 0.650829 0.653567
s 0
usemtl Material.002
f 31/1/1 18/2/1 127/3/1 131/4/1
f 21/5/2 24/6/2 80/7/2 84/8/2
f 23/9/3 26/10/3 83/11/3 79/12/3
f 25/13/4 28/14/4 100/15/4 93/16/4
f 27/17/5 30/18/5 116/19/5 108/20/5 107/21/5
f 29/22/6 32/23/6 130/24/6 126/25/6
f 19/26/7 22/27/7 94/28/7 102/29/7
f 2/30/8 15/31/8 123/32/8 121/33/8
f 8/34/6 5/35/6 91/36/6 88/37/6
f 10/38/1 7/39/1 87/40/1 89/41/1
f 12/42/9 9/43/9 95/44/9 101/45/9
f 14/46/10 30/47/10 27/48/10 11/49/10
f 14/50/7 11/51/7 106/52/7 114/53/7
f 16/54/10 32/55/10 29/56/10 13/57/10
f 16/58/2 13/59/2 119/60/2 122/61/2
f 17/62/9 20/63/9 110/64/9 117/65/9
f 4/66/10 20/67/10 17/68/10 1/69/10
f 6/70/5 3/71/5 103/72/5 96/73/5
f 12/74/10 28/75/10 25/76/10 9/77/10
f 10/78/10 26/79/10 23/80/10 7/81/10
f 8/82/10 24/83/10 21/84/10 5/85/10
f 6/86/10 22/87/10 19/88/10 3/89/10
f 2/90/10 18/91/10 31/92/10 15/93/10
f 19/88/10 20/67/10 4/66/10 3/89/10
f 2/90/10 1/69/10 17/68/10 18/91/10
f 21/84/10 22/87/10 6/86/10 5/85/10
f 23/80/10 24/83/10 8/82/10 7/81/10
f 25/76/10 26/79/10 10/78/10 9/77/10
f 27/48/10 28/75/10 12/74/10 11/49/10
f 29/56/10 30/47/10 14/46/10 13/57/10
f 31/92/10 32/55/10 16/54/10 15/93/10
f 13/94/11 14/50/11 114/53/11 119/95/11
f 11/51/12 12/42/12 101/45/12 106/52/12
f 9/43/13 10/96/13 89/97/13 95/44/13
f 7/39/14 8/34/14 88/37/14 87/40/14
f 5/98/15 6/70/15 96/73/15 91/99/15
f 3/71/16 4/100/16 109/101/16 103/72/16
f 1/102/17 2/103/17 121/104/17 115/105/17
f 4/100/4 1/102/4 115/105/4 109/101/4
f 17/106/18 117/107/18 120/108/18 34/109/18
f 18/91/10 17/68/10 34/110/10 33/111/10
f 19/112/19 102/113/19 98/114/19 35/115/19
f 20/67/10 19/88/10 35/116/10 36/117/10
f 21/118/20 84/119/20 82/120/20 37/121/20
f 22/87/10 21/84/10 37/122/10 38/123/10
f 23/124/21 79/125/21 75/126/21 39/127/21
f 24/83/10 23/80/10 39/128/10 40/129/10
f 25/130/22 93/131/22 90/132/22 41/133/22
f 26/79/10 25/76/10 41/134/10 42/135/10
f 27/136/23 107/137/23 112/138/23 43/139/23
f 28/75/10 27/48/10 43/140/10 44/141/10
f 29/142/24 126/143/24 128/144/24 45/145/24
f 30/47/10 29/56/10 45/146/10 46/147/10
f 31/148/25 131/149/25 135/150/25 47/151/25
f 32/55/10 31/92/10 47/152/10 48/153/10
f 49/154/13 50/155/13 125/156/13 133/157/13
f 34/158/26 120/159/26 125/156/26 50/155/26
f 33/111/10 34/110/10 50/160/10 49/161/10
f 35/115/27 98/114/27 104/162/27 51/163/27
f 36/117/10 35/116/10 51/164/10 52/165/10
f 37/166/28 82/167/28 78/168/28 53/169/28
f 38/123/10 37/122/10 53/170/10 54/171/10
f 39/127/29 75/126/29 73/172/29 55/173/29
f 40/129/10 39/128/10 55/174/10 56/175/10
f 41/176/30 90/177/30 85/178/30 57/179/30
f 42/135/10 41/134/10 57/180/10 58/181/10
f 43/139/31 112/138/31 105/182/31 59/183/31
f 44/141/10 43/140/10 59/184/10 60/185/10
f 45/186/32 128/187/32 132/188/32 61/189/32
f 46/147/10 45/146/10 61/190/10 62/191/10
f 47/151/33 135/150/33 136/192/33 63/193/33
f 48/153/10 47/152/10 63/194/10 64/195/10
f 65/196/34 66/197/34 68/198/34 67/199/34
f 67/200/35 68/201/35 72/202/35 71/203/35
f 71/204/36 72/205/36 70/206/36 69/207/36
f 69/208/37 104/209/37 98/210/37 102/211/37 94/212/37 92/213/37 86/214/37 78/215/37 82/216/37 84/217/37 80/218/37 76/219/37 74/220/37 73/221/37 75/222/37 79/223/37 83/224/37 81/225/37 77/226/37 85/227/37 90/228/37 93/229/37 100/230/37 97/231/37 99/232/37 105/233/37 65/234/37
f 67/235/38 71/236/38 69/237/38 65/238/38
f 72/239/39 68/240/39 66/241/39 70/242/39
f 83/243/40 26/244/40 42/245/40 81/246/40
f 137/247/14 64/248/14 63/249/14 136/250/14
f 124/251/15 62/252/15 61/253/15 132/254/15
f 116/255/41 30/256/41 46/257/41 118/258/41
f 74/259/42 56/260/42 55/261/42 73/262/42
f 77/263/43 58/264/43 57/179/43 85/178/43
f 86/265/11 54/266/11 53/267/11 78/268/11
f 100/269/44 28/270/44 44/271/44 97/272/44
f 80/273/45 24/274/45 40/275/45 76/276/45
f 113/277/46 36/278/46 52/279/46 111/280/46
f 92/281/47 38/282/47 54/266/47 86/265/47
f 134/283/48 48/284/48 64/285/48 137/286/48
f 129/287/49 33/288/49 49/289/49 133/290/49
f 130/291/50 32/292/50 48/284/50 134/283/50
f 97/272/51 44/271/51 60/293/51 99/294/51
f 99/295/16 60/296/16 59/297/16 105/298/16
f 111/299/12 52/300/12 51/301/12 104/302/12
f 94/303/52 22/304/52 38/305/52 92/306/52
f 65/234/37 105/233/37 112/307/37 107/308/37 108/309/37 116/310/37 118/311/37 124/312/37 132/313/37 128/314/37 126/315/37 130/316/37 134/317/37 137/318/37 136/319/37 135/320/37 131/321/37 127/322/37 129/323/37 133/324/37 125/325/37 120/326/37 117/327/37 110/328/37 113/329/37 111/330/37 104/209/37 69/208/37 70/331/37 66/332/37
f 103/333/37 109/334/37 115/335/37 121/336/37 123/337/37 122/338/37 119/339/37 114/340/37 106/341/37 101/342/37 95/343/37 89/344/37 87/345/37 88/346/37 91/347/37 96/348/37
f 110/349/53 20/350/53 36/278/53 113/277/53
f 76/276/54 40/275/54 56/351/54 74/352/54
f 118/353/55 46/354/55 62/252/55 124/251/55
f 81/355/56 42/356/56 58/357/56 77/358/56
f 123/32/42 15/31/42 16/58/42 122/61/42
f 127/359/57 18/360/57 33/361/57 129/362/57
