# Blender 4.3.2
# www.blender.org
mtllib hallway.mtl
o mailroom_walls
v -15.381636 0.000000 0.000000
v -15.381636 39.999660 0.000000
v -15.381636 0.000000 -450.000000
v -15.381636 39.999660 -450.000000
v 15.381636 0.000000 0.000000
v 15.381636 39.999660 0.000000
v 15.381636 0.000000 -450.000000
v 15.381636 39.999660 -450.000000
v -15.381636 6.826572 0.000000
v -15.381636 6.826572 -450.000000
v 15.381636 6.826572 -450.000000
v 15.381636 6.826572 0.000000
v -15.381628 0.000008 -43.546921
v -15.381628 0.000008 -39.406433
v -15.381628 39.999645 -39.406433
v -15.381628 39.999645 -43.546921
v 15.381626 0.000008 -39.406433
v 15.381626 0.000008 -43.546921
v 15.381626 39.999645 -43.546921
v 15.381626 39.999645 -39.406433
v 15.381626 6.826572 -43.546921
v 15.381626 6.826572 -39.406433
v -15.381628 6.826572 -39.406433
v -15.381628 6.826572 -43.546921
v -31.625849 0.000008 -43.546921
v -31.625849 0.000008 -39.406433
v -31.625849 6.826572 -39.406433
v -31.625849 6.826572 -43.546921
v -15.381627 39.999641 -147.387360
v -15.381631 39.999649 -248.317596
v -15.381633 39.999657 -349.305542
v 15.381625 0.000012 -147.387360
v 15.381630 0.000008 -248.317596
v 15.381633 0.000004 -349.305542
v -15.381627 6.826575 -147.387360
v -15.381631 6.826573 -248.317596
v -15.381633 6.826573 -349.305542
v -15.381633 0.000004 -349.305542
v -15.381631 0.000006 -248.317596
v -15.381627 0.000010 -147.387360
v 15.381633 39.999657 -349.305542
v 15.381630 39.999653 -248.317596
v 15.381625 39.999645 -147.387360
v 15.381633 6.826573 -349.305542
v 15.381630 6.826573 -248.317596
v 15.381625 6.826575 -147.387360
v -15.381627 39.999641 -151.803925
v 15.381625 0.000012 -151.803925
v -15.381627 6.826575 -151.803925
v -15.381627 0.000010 -151.803925
v 15.381625 39.999645 -151.803925
v 15.381625 6.826575 -151.803925
v -15.381631 39.999649 -253.163727
v 15.381630 0.000008 -253.163727
v -15.381631 6.826573 -253.163727
v -15.381631 0.000006 -253.163727
v 15.381630 39.999653 -253.163727
v 15.381630 6.826573 -253.163727
v -15.381633 39.999657 -354.149292
v 15.381633 0.000004 -354.149292
v -15.381633 6.826573 -354.149292
v -15.381633 0.000004 -354.149292
v 15.381633 39.999657 -354.149292
v 15.381633 6.826573 -354.149292
v -29.791094 0.000006 -253.163727
v -29.791094 0.000006 -248.317596
v 29.791096 6.826573 -354.149292
v 29.791096 6.826573 -349.305542
v 29.791088 6.826575 -151.803925
v 29.791088 6.826575 -147.387360
v 29.791096 0.000004 -349.305542
v 29.791088 0.000012 -147.387360
v -29.791094 6.826573 -248.317596
v 29.791088 0.000012 -151.803925
v -29.791094 6.826573 -253.163727
v 29.791096 0.000004 -354.149292
vn -1.0000 -0.0000 -0.0000
vn -0.0000 -0.0000 -1.0000
vn 1.0000 -0.0000 -0.0000
vn -0.0000 -0.0000 1.0000
vn -0.0000 -1.0000 -0.0000
vn -0.0000 1.0000 -0.0000
vt 0.262153 0.408729
vt 0.262153 0.776627
vt 0.333021 0.776627
vt 0.333020 0.408729
vt 0.333646 0.076021
vt 0.333646 0.443919
vt 0.666354 0.443919
vt 0.666354 0.076021
vt 0.637219 0.520253
vt 0.637219 0.888151
vt 0.666354 0.888151
vt 0.666354 0.520253
vt 0.666979 0.076021
vt 0.666979 0.443919
vt 0.999687 0.443919
vt 0.999687 0.076021
vt 0.029448 0.333021
vt 0.029448 0.000313
vt 0.000313 0.000313
vt 0.000313 0.333021
vt 0.696115 0.777252
vt 0.696115 0.444545
vt 0.666979 0.444545
vt 0.666979 0.777253
vt 0.666979 0.000313
vt 0.999687 0.000313
vt 0.637219 0.444545
vt 0.666354 0.444545
vt 0.333646 0.000313
vt 0.666354 0.000313
vt 0.262153 0.333021
vt 0.333020 0.333021
vt 0.000313 0.333021
vt 0.000313 0.408729
vt 0.029448 0.408729
vt 0.029448 0.333021
vt 0.000313 0.777252
vt 0.000313 0.952935
vt 0.076021 0.952935
vt 0.076021 0.777252
vt 0.557383 0.444545
vt 0.557383 0.520253
vt 0.634158 0.520253
vt 0.634158 0.444545
vt 0.775950 0.777252
vt 0.775950 0.444545
vt 0.699176 0.444545
vt 0.699176 0.777252
vt 0.109284 0.333021
vt 0.109284 0.000313
vt 0.032509 0.000313
vt 0.032509 0.333021
vt 0.557383 0.888151
vt 0.634158 0.888151
vt 0.000313 0.776627
vt 0.029448 0.776627
vt 0.032509 0.776627
vt 0.032509 0.408729
vt 0.329849 0.777252
vt 0.329849 0.852961
vt 0.332910 0.852961
vt 0.332910 0.777252
vt 0.152980 0.777252
vt 0.152980 0.952935
vt 0.156041 0.952935
vt 0.156041 0.777252
vt 0.156666 0.777252
vt 0.156666 0.952935
vt 0.159727 0.952935
vt 0.159727 0.777252
vt 0.076646 0.777252
vt 0.076646 0.952935
vt 0.152355 0.952935
vt 0.152355 0.777252
vt 0.404514 0.520253
vt 0.404514 0.888151
vt 0.408095 0.888151
vt 0.408095 0.520253
vt 0.479177 0.520253
vt 0.479177 0.888151
vt 0.482760 0.888151
vt 0.482760 0.520253
vt 0.554118 0.520253
vt 0.554118 0.888151
vt 0.262154 0.333021
vt 0.262154 0.000313
vt 0.258572 0.000313
vt 0.258572 0.333021
vt 0.187490 0.333021
vt 0.187490 0.000313
vt 0.183907 0.000313
vt 0.183907 0.333021
vt 0.112549 0.333021
vt 0.112549 0.000313
vt 0.928820 0.777253
vt 0.928820 0.444545
vt 0.925239 0.444545
vt 0.925239 0.777253
vt 0.854156 0.777253
vt 0.854156 0.444545
vt 0.850573 0.444545
vt 0.850573 0.777253
vt 0.779216 0.777252
vt 0.779216 0.444545
vt 0.325641 0.777252
vt 0.325641 0.933092
vt 0.329224 0.933092
vt 0.329224 0.777252
vt 0.479177 0.444545
vt 0.482760 0.444545
vt 0.320809 0.933092
vt 0.320809 0.777252
vt 0.317228 0.777252
vt 0.317228 0.933092
vt 0.032509 0.333021
vt 0.109284 0.408729
vt 0.112549 0.408729
vt 0.183907 0.408729
vt 0.183907 0.333021
vt 0.187490 0.333021
vt 0.187490 0.408729
vt 0.258572 0.408729
vt 0.258572 0.333021
vt 0.109284 0.776627
vt 0.112549 0.776627
vt 0.183907 0.776627
vt 0.187490 0.776627
vt 0.258572 0.776627
vt 0.554118 0.444545
vt 0.979470 0.933717
vt 0.979470 0.777878
vt 0.976204 0.777878
vt 0.976204 0.933717
vt 0.408095 0.444545
vt 0.333646 0.444545
vt 0.333646 0.520253
vt 0.404514 0.444545
vt 0.999687 0.777253
vt 0.999687 0.444545
vt 0.333021 0.333021
vt 0.333021 0.000313
vt 0.333646 0.888152
vt 0.337854 0.888777
vt 0.337854 0.964485
vt 0.341436 0.964485
vt 0.341436 0.888777
vt 0.342061 0.888777
vt 0.342061 0.964485
vt 0.345326 0.964485
vt 0.345326 0.888777
vt 0.333646 0.888777
vt 0.333646 0.964485
vt 0.337229 0.964485
vt 0.337229 0.888777
vt 0.236686 0.777252
vt 0.236686 0.933092
vt 0.312395 0.933092
vt 0.312395 0.777252
vt 0.895355 0.933718
vt 0.895355 0.777878
vt 0.819647 0.777878
vt 0.819647 0.933718
vt 0.975579 0.933718
vt 0.975579 0.777878
vt 0.972314 0.777878
vt 0.972314 0.933718
vt 0.666979 0.777878
vt 0.666979 0.933718
vt 0.742688 0.933718
vt 0.742688 0.777878
vt 0.743313 0.777878
vt 0.743313 0.933718
vt 0.819021 0.933718
vt 0.819021 0.777878
vt 0.160353 0.777252
vt 0.160353 0.933092
vt 0.236061 0.933092
vt 0.236061 0.777252
vt 0.325016 0.933092
vt 0.325016 0.777252
vt 0.321434 0.777252
vt 0.321434 0.933092
vt 0.971689 0.933718
vt 0.971689 0.777878
vt 0.895980 0.777878
vt 0.895980 0.933718
vt 0.313020 0.777252
vt 0.313020 0.933092
vt 0.316603 0.933092
vt 0.316603 0.777252
s 0
f 61/1/1 59/2/1 4/3/1 10/4/1
f 10/5/2 4/6/2 8/7/2 11/8/2
f 22/9/3 20/10/3 6/11/3 12/12/3
f 12/13/4 6/14/4 2/15/4 9/16/4
f 14/17/5 17/18/5 5/19/5 1/20/5
f 20/21/6 15/22/6 2/23/6 6/24/6
f 5/25/4 12/13/4 9/16/4 1/26/4
f 17/27/3 22/9/3 12/12/3 5/28/3
f 3/29/2 10/5/2 11/8/2 7/30/2
f 62/31/1 61/1/1 10/4/1 3/32/1
f 1/33/1 9/34/1 23/35/1 14/36/1
f 13/37/2 25/38/2 28/39/2 24/40/2
f 32/41/3 46/42/3 21/43/3 18/44/3
f 18/44/3 21/43/3 22/9/3 17/27/3
f 43/45/6 29/46/6 16/47/6 19/48/6
f 19/48/6 16/47/6 15/22/6 20/21/6
f 40/49/5 32/50/5 18/51/5 13/52/5
f 13/52/5 18/51/5 17/18/5 14/17/5
f 46/42/3 43/53/3 19/54/3 21/43/3
f 21/43/3 19/54/3 20/10/3 22/9/3
f 9/34/1 2/55/1 15/56/1 23/35/1
f 23/35/1 15/56/1 16/57/1 24/58/1
f 26/59/1 27/60/1 28/61/1 25/62/1
f 24/63/6 28/64/6 27/65/6 23/66/6
f 14/67/5 26/68/5 25/69/5 13/70/5
f 23/71/4 27/72/4 26/73/4 14/74/4
f 64/75/3 63/76/3 41/77/3 44/78/3
f 58/79/3 57/80/3 42/81/3 45/82/3
f 52/83/3 51/84/3 43/53/3 46/42/3
f 62/85/5 60/86/5 34/87/5 38/88/5
f 56/89/5 54/90/5 33/91/5 39/92/5
f 50/93/5 48/94/5 32/50/5 40/49/5
f 63/95/6 59/96/6 31/97/6 41/98/6
f 57/99/6 53/100/6 30/101/6 42/102/6
f 51/103/6 47/104/6 29/46/6 43/45/6
f 39/105/5 66/106/5 65/107/5 56/108/5
f 54/109/3 58/79/3 45/82/3 33/110/3
f 60/111/5 76/112/5 71/113/5 34/114/5
f 13/115/1 24/58/1 35/116/1 40/49/1
f 50/93/1 49/117/1 36/118/1 39/119/1
f 56/120/1 55/121/1 37/122/1 38/123/1
f 24/58/1 16/57/1 29/124/1 35/116/1
f 49/117/1 47/125/1 30/126/1 36/118/1
f 55/121/1 53/127/1 31/128/1 37/122/1
f 35/116/1 29/124/1 47/125/1 49/117/1
f 40/49/1 35/116/1 49/117/1 50/93/1
f 33/110/3 45/82/3 52/83/3 48/129/3
f 42/102/6 30/101/6 47/104/6 51/103/6
f 39/92/5 33/91/5 48/94/5 50/93/5
f 45/82/3 42/81/3 51/84/3 52/83/3
f 36/118/1 30/126/1 53/127/1 55/121/1
f 48/130/5 74/131/5 72/132/5 32/133/5
f 34/134/3 44/78/3 58/79/3 54/109/3
f 41/98/6 31/97/6 53/100/6 57/99/6
f 38/88/5 34/87/5 54/90/5 56/89/5
f 44/78/3 41/77/3 57/80/3 58/79/3
f 7/135/3 11/136/3 64/75/3 60/137/3
f 8/138/6 4/139/6 59/96/6 63/95/6
f 3/140/5 7/141/5 60/86/5 62/85/5
f 11/136/3 8/142/3 63/76/3 64/75/3
f 38/123/1 37/122/1 61/1/1 62/31/1
f 37/122/1 31/128/1 59/2/1 61/1/1
f 76/143/3 67/144/3 68/145/3 71/146/3
f 74/147/3 69/148/3 70/149/3 72/150/3
f 66/151/1 73/152/1 75/153/1 65/154/1
f 34/155/4 71/156/4 68/157/4 44/158/4
f 52/159/2 69/160/2 74/161/2 48/162/2
f 46/163/6 70/164/6 69/165/6 52/166/6
f 36/167/4 73/168/4 66/169/4 39/170/4
f 56/171/2 65/172/2 75/173/2 55/174/2
f 64/175/2 67/176/2 76/177/2 60/178/2
f 44/179/6 68/180/6 67/181/6 64/182/6
f 32/183/4 72/184/4 70/185/4 46/186/4
f 55/187/6 75/188/6 73/189/6 36/190/6
