# Blender 4.3.2
# www.blender.org
mtllib second floor.mtl
o second_floor
v -15.266933 19.500000 0.000000
v -15.266933 20.500000 0.000000
v -15.266933 19.500000 -450.000000
v -15.266933 20.500000 -450.000000
v 15.266933 19.500000 0.000000
v 15.266933 20.500000 0.000000
v 15.266933 19.500000 -450.000000
v 15.266933 20.500000 -450.000000
v -15.266933 19.500000 -393.750000
v -15.266933 19.500000 -337.500000
v -15.266933 19.500000 -281.250000
v -15.266933 19.500000 -225.000000
v -15.266933 19.500000 -168.750000
v -15.266933 19.500000 -112.500000
v -15.266933 19.500000 -56.250000
v -15.266933 20.500000 -56.250000
v -15.266933 20.500000 -112.500000
v -15.266933 20.500000 -168.750000
v -15.266933 20.500000 -225.000000
v -15.266933 20.500000 -281.250000
v -15.266933 20.500000 -337.500000
v -15.266933 20.500000 -393.750000
v 15.266933 19.500000 -56.250000
v 15.266933 19.500000 -112.500000
v 15.266933 19.500000 -168.750000
v 15.266933 19.500000 -225.000000
v 15.266933 19.500000 -281.250000
v 15.266933 19.500000 -337.500000
v 15.266933 19.500000 -393.750000
v 15.266933 20.500000 -393.750000
v 15.266933 20.500000 -337.500000
v 15.266933 20.500000 -281.250000
v 15.266933 20.500000 -225.000000
v 15.266933 20.500000 -168.750000
v 15.266933 20.500000 -112.500000
v 15.266933 20.500000 -56.250000
v -11.384464 19.500000 -52.815536
v 11.384464 19.500000 -52.815536
v 11.384464 19.500000 -3.434494
v -11.384464 19.500000 -3.434494
v 11.384464 20.500000 -52.815536
v -11.384464 20.500000 -52.815536
v -11.384464 20.500000 -3.434494
v 11.384464 20.500000 -3.434494
v 11.384464 20.500000 -446.565491
v -11.384464 20.500000 -446.565491
v -11.384464 20.500000 -397.184448
v 11.384464 20.500000 -397.184448
v 11.384464 20.500000 -390.315491
v -11.384464 20.500000 -390.315491
v -11.384464 20.500000 -340.934448
v 11.384464 20.500000 -340.934448
v 11.384464 20.500000 -334.065521
v -11.384464 20.500000 -334.065521
v -11.384464 20.500000 -284.684479
v 11.384464 20.500000 -284.684479
v 11.384464 20.500000 -277.815521
v -11.384464 20.500000 -277.815521
v -11.384464 20.500000 -228.434479
v 11.384464 20.500000 -228.434479
v 11.384464 20.500000 -221.565521
v -11.384464 20.500000 -221.565521
v -11.384464 20.500000 -172.184479
v 11.384464 20.500000 -172.184479
v 11.384464 20.500000 -165.315521
v -11.384464 20.500000 -165.315521
v -11.384464 20.500000 -115.934486
v 11.384464 20.500000 -115.934486
v 11.384464 20.500000 -109.065536
v -11.384464 20.500000 -109.065536
v -11.384464 20.500000 -59.684494
v 11.384464 20.500000 -59.684494
v -11.384464 19.500000 -446.565491
v 11.384464 19.500000 -446.565491
v 11.384464 19.500000 -397.184448
v -11.384464 19.500000 -397.184448
v -11.384464 19.500000 -390.315491
v 11.384464 19.500000 -390.315491
v 11.384464 19.500000 -340.934448
v -11.384464 19.500000 -340.934448
v -11.384464 19.500000 -334.065521
v 11.384464 19.500000 -334.065521
v 11.384464 19.500000 -284.684479
v -11.384464 19.500000 -284.684479
v -11.384464 19.500000 -277.815521
v 11.384464 19.500000 -277.815521
v 11.384464 19.500000 -228.434479
v -11.384464 19.500000 -228.434479
v -11.384464 19.500000 -221.565521
v 11.384464 19.500000 -221.565521
v 11.384464 19.500000 -172.184479
v -11.384464 19.500000 -172.184479
v -11.384464 19.500000 -165.315521
v 11.384464 19.500000 -165.315521
v 11.384464 19.500000 -115.934486
v -11.384464 19.500000 -115.934486
v -11.384464 19.500000 -109.065536
v 11.384464 19.500000 -109.065536
v 11.384464 19.500000 -59.684494
v -11.384464 19.500000 -59.684494
vn -1.0000 -0.0000 -0.0000
vn -0.0000 -0.0000 -1.0000
vn 1.0000 -0.0000 -0.0000
vn -0.0000 -0.0000 1.0000
vn -0.0000 -1.0000 -0.0000
vn -0.0000 1.0000 -0.0000
vt 0.186934 0.132780
vt 0.184758 0.132780
vt 0.184758 0.010374
vt 0.186934 0.010374
vt 0.278627 0.333231
vt 0.276451 0.333231
vt 0.276451 0.266785
vt 0.278627 0.266785
vt 0.209858 0.132780
vt 0.207681 0.132780
vt 0.207681 0.010374
vt 0.209858 0.010374
vt 0.278627 0.420423
vt 0.276451 0.420423
vt 0.276451 0.353978
vt 0.278627 0.353978
vt 0.209857 0.989626
vt 0.207681 0.989626
vt 0.207681 0.867220
vt 0.209857 0.867220
vt 0.207681 0.744813
vt 0.209857 0.744813
vt 0.207681 0.622407
vt 0.209857 0.622407
vt 0.207681 0.500000
vt 0.209857 0.500000
vt 0.207681 0.377593
vt 0.209857 0.377593
vt 0.207681 0.255187
vt 0.209857 0.255187
vt 0.186934 0.989626
vt 0.184758 0.989626
vt 0.184758 0.867220
vt 0.186934 0.867220
vt 0.184758 0.744813
vt 0.186934 0.744813
vt 0.184758 0.622407
vt 0.186934 0.622407
vt 0.184758 0.500000
vt 0.186934 0.500000
vt 0.184758 0.377593
vt 0.186934 0.377593
vt 0.184758 0.255187
vt 0.186934 0.255187
vt 0.076819 0.132780
vt 0.010374 0.132780
vt 0.018822 0.125306
vt 0.068370 0.125306
vt 0.010374 0.010374
vt 0.018822 0.017847
vt 0.076819 0.010374
vt 0.068370 0.017847
vt 0.164011 0.132780
vt 0.097566 0.132780
vt 0.106015 0.125306
vt 0.155562 0.125306
vt 0.097566 0.010374
vt 0.106015 0.017847
vt 0.164011 0.010374
vt 0.155562 0.017847
vt 0.164011 0.989626
vt 0.097566 0.989626
vt 0.106015 0.982153
vt 0.155562 0.982153
vt 0.097566 0.867220
vt 0.106015 0.874694
vt 0.164011 0.867220
vt 0.155562 0.874694
vt 0.106015 0.859746
vt 0.155562 0.859746
vt 0.097566 0.744813
vt 0.106015 0.752287
vt 0.164011 0.744813
vt 0.155562 0.752287
vt 0.106015 0.737339
vt 0.155562 0.737339
vt 0.097566 0.622407
vt 0.106015 0.629880
vt 0.164011 0.622407
vt 0.155562 0.629880
vt 0.106015 0.614933
vt 0.155562 0.614933
vt 0.097566 0.500000
vt 0.106015 0.507474
vt 0.164011 0.500000
vt 0.155562 0.507474
vt 0.106015 0.492526
vt 0.155562 0.492526
vt 0.097566 0.377593
vt 0.106015 0.385067
vt 0.164011 0.377593
vt 0.155562 0.385067
vt 0.106015 0.370120
vt 0.155562 0.370120
vt 0.097566 0.255187
vt 0.106015 0.262661
vt 0.164011 0.255187
vt 0.155562 0.262661
vt 0.106015 0.247713
vt 0.155562 0.247713
vt 0.106015 0.140254
vt 0.155562 0.140254
vt 0.076819 0.989626
vt 0.010374 0.989626
vt 0.018822 0.982153
vt 0.068370 0.982153
vt 0.010374 0.867220
vt 0.018822 0.874694
vt 0.076819 0.867220
vt 0.068370 0.874694
vt 0.018822 0.859746
vt 0.068370 0.859746
vt 0.010374 0.744813
vt 0.018822 0.752287
vt 0.076819 0.744813
vt 0.068370 0.752287
vt 0.018822 0.737339
vt 0.068370 0.737339
vt 0.010374 0.622407
vt 0.018822 0.629880
vt 0.076819 0.622407
vt 0.068370 0.629880
vt 0.018822 0.614933
vt 0.068370 0.614933
vt 0.010374 0.500000
vt 0.018822 0.507474
vt 0.076819 0.500000
vt 0.068370 0.507474
vt 0.018822 0.492526
vt 0.068370 0.492526
vt 0.010374 0.377593
vt 0.018822 0.385067
vt 0.076819 0.377593
vt 0.068370 0.385067
vt 0.018822 0.370120
vt 0.068370 0.370120
vt 0.010374 0.255187
vt 0.018822 0.262661
vt 0.076819 0.255187
vt 0.068370 0.262661
vt 0.018822 0.247713
vt 0.068370 0.247713
vt 0.018822 0.140254
vt 0.068370 0.140254
vt 0.278627 0.441170
vt 0.278627 0.490718
vt 0.276451 0.490718
vt 0.276451 0.441170
vt 0.232781 0.010374
vt 0.232781 0.117832
vt 0.230605 0.117832
vt 0.230605 0.010374
vt 0.278627 0.511465
vt 0.278627 0.561013
vt 0.276451 0.561013
vt 0.276451 0.511465
vt 0.232781 0.138579
vt 0.232781 0.246038
vt 0.230605 0.246038
vt 0.230605 0.138579
vt 0.276451 0.631308
vt 0.276451 0.581760
vt 0.278627 0.581760
vt 0.278627 0.631308
vt 0.230605 0.374244
vt 0.230605 0.266785
vt 0.232781 0.266785
vt 0.232781 0.374244
vt 0.276451 0.701603
vt 0.276451 0.652055
vt 0.278627 0.652055
vt 0.278627 0.701603
vt 0.230605 0.502450
vt 0.230605 0.394991
vt 0.232781 0.394991
vt 0.232781 0.502450
vt 0.276451 0.771897
vt 0.276451 0.722350
vt 0.278627 0.722350
vt 0.278627 0.771897
vt 0.276451 0.117832
vt 0.276451 0.010373
vt 0.278627 0.010373
vt 0.278627 0.117832
vt 0.276451 0.842192
vt 0.276451 0.792645
vt 0.278627 0.792645
vt 0.278627 0.842192
vt 0.276451 0.246038
vt 0.276451 0.138579
vt 0.278627 0.138579
vt 0.278627 0.246038
vt 0.276451 0.912487
vt 0.276451 0.862939
vt 0.278627 0.862939
vt 0.278627 0.912487
vt 0.230605 0.630656
vt 0.230605 0.523197
vt 0.232781 0.523197
vt 0.232781 0.630656
vt 0.276451 0.982782
vt 0.276451 0.933234
vt 0.278627 0.933234
vt 0.278627 0.982782
vt 0.230605 0.758862
vt 0.230605 0.651403
vt 0.232781 0.651403
vt 0.232781 0.758862
vt 0.299374 0.059921
vt 0.299374 0.010374
vt 0.301550 0.010374
vt 0.301550 0.059921
vt 0.230605 0.887068
vt 0.230605 0.779609
vt 0.232781 0.779609
vt 0.232781 0.887068
vt 0.299374 0.130216
vt 0.299374 0.080668
vt 0.301550 0.080668
vt 0.301550 0.130216
vt 0.253528 0.117832
vt 0.253528 0.010374
vt 0.255704 0.010374
vt 0.255704 0.117832
vt 0.299374 0.200511
vt 0.299374 0.150963
vt 0.301550 0.150963
vt 0.301550 0.200511
vt 0.253528 0.246038
vt 0.253528 0.138579
vt 0.255704 0.138579
vt 0.255704 0.246038
vt 0.299374 0.270806
vt 0.299374 0.221258
vt 0.301550 0.221258
vt 0.301550 0.270806
vt 0.253528 0.374244
vt 0.253528 0.266785
vt 0.255704 0.266785
vt 0.255704 0.374244
vt 0.299374 0.341101
vt 0.299374 0.291553
vt 0.301550 0.291553
vt 0.301550 0.341101
vt 0.253528 0.502450
vt 0.253528 0.394991
vt 0.255704 0.394991
vt 0.255704 0.502450
vt 0.299374 0.411396
vt 0.299374 0.361848
vt 0.301550 0.361848
vt 0.301550 0.411396
vt 0.253528 0.630656
vt 0.253528 0.523197
vt 0.255704 0.523197
vt 0.255704 0.630656
vt 0.299374 0.481691
vt 0.299374 0.432143
vt 0.301550 0.432143
vt 0.301550 0.481691
vt 0.253528 0.758862
vt 0.253528 0.651403
vt 0.255704 0.651403
vt 0.255704 0.758862
vt 0.299374 0.551986
vt 0.299374 0.502438
vt 0.301550 0.502438
vt 0.301550 0.551986
vt 0.253528 0.887068
vt 0.253528 0.779609
vt 0.255704 0.779609
vt 0.255704 0.887068
s 0
f 9/1/1 22/2/1 4/3/1 3/4/1
f 3/5/2 4/6/2 8/7/2 7/8/2
f 23/9/3 36/10/3 6/11/3 5/12/3
f 5/13/4 6/14/4 2/15/4 1/16/4
f 7/17/3 8/18/3 30/19/3 29/20/3
f 29/20/3 30/19/3 31/21/3 28/22/3
f 28/22/3 31/21/3 32/23/3 27/24/3
f 27/24/3 32/23/3 33/25/3 26/26/3
f 26/26/3 33/25/3 34/27/3 25/28/3
f 25/28/3 34/27/3 35/29/3 24/30/3
f 24/30/3 35/29/3 36/10/3 23/9/3
f 1/31/1 2/32/1 16/33/1 15/34/1
f 15/34/1 16/33/1 17/35/1 14/36/1
f 14/36/1 17/35/1 18/37/1 13/38/1
f 13/38/1 18/37/1 19/39/1 12/40/1
f 12/40/1 19/39/1 20/41/1 11/42/1
f 11/42/1 20/41/1 21/43/1 10/44/1
f 10/44/1 21/43/1 22/2/1 9/1/1
f 15/45/5 23/46/5 38/47/5 37/48/5
f 23/46/5 5/49/5 39/50/5 38/47/5
f 5/49/5 1/51/5 40/52/5 39/50/5
f 1/51/5 15/45/5 37/48/5 40/52/5
f 36/53/6 16/54/6 42/55/6 41/56/6
f 16/54/6 2/57/6 43/58/6 42/55/6
f 2/57/6 6/59/6 44/60/6 43/58/6
f 6/59/6 36/53/6 41/56/6 44/60/6
f 8/61/6 4/62/6 46/63/6 45/64/6
f 4/62/6 22/65/6 47/66/6 46/63/6
f 22/65/6 30/67/6 48/68/6 47/66/6
f 30/67/6 8/61/6 45/64/6 48/68/6
f 30/67/6 22/65/6 50/69/6 49/70/6
f 22/65/6 21/71/6 51/72/6 50/69/6
f 21/71/6 31/73/6 52/74/6 51/72/6
f 31/73/6 30/67/6 49/70/6 52/74/6
f 31/73/6 21/71/6 54/75/6 53/76/6
f 21/71/6 20/77/6 55/78/6 54/75/6
f 20/77/6 32/79/6 56/80/6 55/78/6
f 32/79/6 31/73/6 53/76/6 56/80/6
f 32/79/6 20/77/6 58/81/6 57/82/6
f 20/77/6 19/83/6 59/84/6 58/81/6
f 19/83/6 33/85/6 60/86/6 59/84/6
f 33/85/6 32/79/6 57/82/6 60/86/6
f 33/85/6 19/83/6 62/87/6 61/88/6
f 19/83/6 18/89/6 63/90/6 62/87/6
f 18/89/6 34/91/6 64/92/6 63/90/6
f 34/91/6 33/85/6 61/88/6 64/92/6
f 34/91/6 18/89/6 66/93/6 65/94/6
f 18/89/6 17/95/6 67/96/6 66/93/6
f 17/95/6 35/97/6 68/98/6 67/96/6
f 35/97/6 34/91/6 65/94/6 68/98/6
f 35/97/6 17/95/6 70/99/6 69/100/6
f 17/95/6 16/54/6 71/101/6 70/99/6
f 16/54/6 36/53/6 72/102/6 71/101/6
f 36/53/6 35/97/6 69/100/6 72/102/6
f 3/103/5 7/104/5 74/105/5 73/106/5
f 7/104/5 29/107/5 75/108/5 74/105/5
f 29/107/5 9/109/5 76/110/5 75/108/5
f 9/109/5 3/103/5 73/106/5 76/110/5
f 9/109/5 29/107/5 78/111/5 77/112/5
f 29/107/5 28/113/5 79/114/5 78/111/5
f 28/113/5 10/115/5 80/116/5 79/114/5
f 10/115/5 9/109/5 77/112/5 80/116/5
f 10/115/5 28/113/5 82/117/5 81/118/5
f 28/113/5 27/119/5 83/120/5 82/117/5
f 27/119/5 11/121/5 84/122/5 83/120/5
f 11/121/5 10/115/5 81/118/5 84/122/5
f 11/121/5 27/119/5 86/123/5 85/124/5
f 27/119/5 26/125/5 87/126/5 86/123/5
f 26/125/5 12/127/5 88/128/5 87/126/5
f 12/127/5 11/121/5 85/124/5 88/128/5
f 12/127/5 26/125/5 90/129/5 89/130/5
f 26/125/5 25/131/5 91/132/5 90/129/5
f 25/131/5 13/133/5 92/134/5 91/132/5
f 13/133/5 12/127/5 89/130/5 92/134/5
f 13/133/5 25/131/5 94/135/5 93/136/5
f 25/131/5 24/137/5 95/138/5 94/135/5
f 24/137/5 14/139/5 96/140/5 95/138/5
f 14/139/5 13/133/5 93/136/5 96/140/5
f 14/139/5 24/137/5 98/141/5 97/142/5
f 24/137/5 23/46/5 99/143/5 98/141/5
f 23/46/5 15/45/5 100/144/5 99/143/5
f 15/45/5 14/139/5 97/142/5 100/144/5
f 39/145/2 40/146/2 43/147/2 44/148/2
f 40/149/3 37/150/3 42/151/3 43/152/3
f 37/153/4 38/154/4 41/155/4 42/156/4
f 38/157/1 39/158/1 44/159/1 41/160/1
f 71/161/2 72/162/2 99/163/2 100/164/2
f 72/165/1 69/166/1 98/167/1 99/168/1
f 69/169/4 70/170/4 97/171/4 98/172/4
f 70/173/3 71/174/3 100/175/3 97/176/3
f 67/177/2 68/178/2 95/179/2 96/180/2
f 68/181/1 65/182/1 94/183/1 95/184/1
f 65/185/4 66/186/4 93/187/4 94/188/4
f 66/189/3 67/190/3 96/191/3 93/192/3
f 63/193/2 64/194/2 91/195/2 92/196/2
f 64/197/1 61/198/1 90/199/1 91/200/1
f 61/201/4 62/202/4 89/203/4 90/204/4
f 62/205/3 63/206/3 92/207/3 89/208/3
f 59/209/2 60/210/2 87/211/2 88/212/2
f 60/213/1 57/214/1 86/215/1 87/216/1
f 57/217/4 58/218/4 85/219/4 86/220/4
f 58/221/3 59/222/3 88/223/3 85/224/3
f 55/225/2 56/226/2 83/227/2 84/228/2
f 56/229/1 53/230/1 82/231/1 83/232/1
f 53/233/4 54/234/4 81/235/4 82/236/4
f 54/237/3 55/238/3 84/239/3 81/240/3
f 51/241/2 52/242/2 79/243/2 80/244/2
f 52/245/1 49/246/1 78/247/1 79/248/1
f 49/249/4 50/250/4 77/251/4 78/252/4
f 50/253/3 51/254/3 80/255/3 77/256/3
f 47/257/2 48/258/2 75/259/2 76/260/2
f 48/261/1 45/262/1 74/263/1 75/264/1
f 45/265/4 46/266/4 73/267/4 74/268/4
f 46/269/3 47/270/3 76/271/3 73/272/3
