# Blender 4.3.2
# www.blender.org
mtllib shelf1.mtl
o shelf
v 14.911133 -0.026220 -32.234768
v 14.911133 6.581244 -32.234768
v 14.911133 -0.026220 -25.627304
v 14.911133 6.581244 -25.627304
v 14.744335 -0.026220 -32.234768
v 14.744335 6.581244 -32.234768
v 14.744335 -0.026220 -25.627304
v 14.744335 6.581244 -25.627304
v 14.744335 0.114709 -25.768234
v 14.744335 6.440314 -25.768234
v 14.744335 6.440314 -32.093838
v 14.744335 0.114709 -32.093838
v 14.911133 1.295273 -32.234768
v 14.911133 2.616765 -32.234768
v 14.911133 3.938258 -32.234768
v 14.911133 5.259751 -32.234768
v 14.911133 5.259751 -25.627304
v 14.911133 3.938258 -25.627304
v 14.911133 2.616765 -25.627304
v 14.911133 1.295273 -25.627304
v 14.744335 5.259751 -25.627304
v 14.744335 3.938258 -25.627304
v 14.744335 2.616765 -25.627304
v 14.744335 1.295273 -25.627304
v 14.744335 5.259751 -32.234768
v 14.744335 3.938258 -32.234768
v 14.744335 2.616765 -32.234768
v 14.744335 1.295273 -32.234768
v 14.744335 5.175194 -25.768234
v 14.744335 3.910072 -25.768234
v 14.744335 2.644951 -25.768234
v 14.744335 1.379830 -25.768234
v 14.744335 5.175194 -32.093838
v 14.744335 3.910072 -32.093838
v 14.744335 2.644951 -32.093838
v 14.744335 1.379830 -32.093838
v 14.849572 1.379830 -25.768234
v 14.849572 0.114709 -25.768234
v 14.849572 0.114709 -32.093838
v 14.849572 6.440314 -25.768234
v 14.849572 6.440314 -32.093838
v 14.849572 1.379830 -32.093838
v 14.849572 5.175194 -25.768234
v 14.849572 3.910072 -25.768234
v 14.849572 2.644951 -25.768234
v 14.849572 5.175194 -32.093838
v 14.849572 3.910072 -32.093838
v 14.849572 2.644951 -32.093838
v 14.849572 5.398674 -25.858070
v 14.849572 5.576166 -25.858070
v 14.849572 5.576166 -32.004002
v 14.849572 5.398674 -32.004002
v 14.849572 0.338188 -25.858070
v 14.849572 0.515681 -25.858070
v 14.849572 0.515681 -32.004002
v 14.849572 0.338188 -32.004002
v 14.849572 1.603310 -25.858070
v 14.849572 1.780802 -25.858070
v 14.849572 1.780802 -32.004002
v 14.849572 1.603310 -32.004002
v 14.849572 2.868431 -25.858070
v 14.849572 3.045923 -25.858070
v 14.849572 3.045923 -32.004002
v 14.849572 2.868431 -32.004002
v 14.849572 4.133553 -25.858070
v 14.849572 4.311045 -25.858070
v 14.849572 4.311045 -32.004002
v 14.849572 4.133553 -32.004002
v 13.697473 5.493992 -25.858070
v 13.697473 5.398674 -25.858070
v 13.697473 5.398674 -32.004002
v 13.697473 5.493992 -32.004002
v 13.697473 0.433507 -25.858070
v 13.697473 0.338188 -25.858070
v 13.697473 0.338188 -32.004002
v 13.697473 0.433507 -32.004002
v 13.697473 1.698628 -25.858070
v 13.697473 1.603310 -25.858070
v 13.697473 1.603310 -32.004002
v 13.697473 1.698628 -32.004002
v 13.697473 2.963749 -25.858070
v 13.697473 2.868431 -25.858070
v 13.697473 2.868431 -32.004002
v 13.697473 2.963749 -32.004002
v 13.697473 4.228870 -25.858070
v 13.697473 4.133553 -25.858070
v 13.697473 4.133553 -32.004002
v 13.697473 4.228870 -32.004002
vn 1.0000 -0.0000 -0.0000
vn -0.0000 -0.0000 1.0000
vn -0.0000 -0.0000 -1.0000
vn -0.0000 -1.0000 -0.0000
vn -0.0000 1.0000 -0.0000
vn -1.0000 -0.0000 -0.0000
vn -0.0711 0.9975 -0.0000
vt 0.076879 0.325980
vt 0.014603 0.325980
vt 0.014603 0.014603
vt 0.076879 0.014603
vt 0.927030 0.417462
vt 0.927030 0.355186
vt 0.934891 0.355186
vt 0.934891 0.417462
vt 0.383920 0.852877
vt 0.383920 0.912495
vt 0.378960 0.912495
vt 0.378960 0.852877
vt 0.946267 0.076879
vt 0.946267 0.014603
vt 0.954127 0.014603
vt 0.954127 0.076879
vt 0.964097 0.355186
vt 0.971957 0.355186
vt 0.971957 0.666563
vt 0.964097 0.666563
vt 0.341904 0.674020
vt 0.349754 0.674020
vt 0.349754 0.985397
vt 0.341904 0.985397
vt 0.417462 0.325980
vt 0.355186 0.325980
vt 0.361828 0.319339
vt 0.421447 0.319339
vt 0.355186 0.014603
vt 0.361828 0.021245
vt 0.604288 0.014603
vt 0.666563 0.014603
vt 0.659922 0.021245
vt 0.600303 0.021245
vt 0.666563 0.325980
vt 0.659922 0.319339
vt 0.417462 0.014603
vt 0.421447 0.021245
vt 0.479737 0.014603
vt 0.481065 0.021245
vt 0.542013 0.014603
vt 0.540684 0.021245
vt 0.604288 0.325980
vt 0.600303 0.319339
vt 0.542013 0.325980
vt 0.540684 0.319339
vt 0.479737 0.325980
vt 0.481065 0.319339
vt 0.946267 0.325980
vt 0.946267 0.263705
vt 0.954127 0.263705
vt 0.954127 0.325980
vt 0.946267 0.201429
vt 0.954127 0.201429
vt 0.946267 0.139154
vt 0.954127 0.139154
vt 0.413126 0.733639
vt 0.413126 0.674020
vt 0.418085 0.674020
vt 0.418085 0.733639
vt 0.413126 0.972114
vt 0.413126 0.912495
vt 0.418085 0.912495
vt 0.418085 0.972114
vt 0.413126 0.852877
vt 0.418085 0.852877
vt 0.383920 0.972114
vt 0.378960 0.972114
vt 0.927030 0.666563
vt 0.927030 0.604288
vt 0.934891 0.604288
vt 0.934891 0.666563
vt 0.927030 0.542013
vt 0.934891 0.542013
vt 0.927030 0.479737
vt 0.934891 0.479737
vt 0.325980 0.325980
vt 0.263705 0.325980
vt 0.263705 0.014603
vt 0.325980 0.014603
vt 0.201429 0.325980
vt 0.201429 0.014603
vt 0.139154 0.325980
vt 0.139154 0.014603
vt 0.396323 0.355186
vt 0.396323 0.644814
vt 0.341904 0.644814
vt 0.341904 0.355186
vt 0.277598 0.682487
vt 0.285962 0.682487
vt 0.282090 0.736780
vt 0.277598 0.736780
vt 0.695770 0.304230
vt 0.695770 0.014603
vt 0.750062 0.014603
vt 0.750062 0.304230
vt 0.089745 0.682487
vt 0.098109 0.682487
vt 0.094236 0.736780
vt 0.089745 0.736780
vt 0.760032 0.644814
vt 0.760032 0.355186
vt 0.814325 0.355186
vt 0.814325 0.644814
vt 0.383920 0.674020
vt 0.383920 0.733639
vt 0.378960 0.733639
vt 0.378960 0.674020
vt 0.481457 0.972114
vt 0.481457 0.674020
vt 0.486410 0.674020
vt 0.486410 0.972114
vt 0.413126 0.793258
vt 0.418085 0.793258
vt 0.383920 0.793258
vt 0.378960 0.793258
vt 0.452251 0.674020
vt 0.452251 0.972114
vt 0.447292 0.972114
vt 0.447292 0.674020
vt 0.014603 0.414805
vt 0.014603 0.355186
vt 0.018837 0.395909
vt 0.018837 0.404274
vt 0.312697 0.355186
vt 0.308464 0.395909
vt 0.312697 0.414805
vt 0.308464 0.404274
vt 0.014603 0.653281
vt 0.014603 0.593662
vt 0.018837 0.634385
vt 0.018837 0.642749
vt 0.312697 0.593662
vt 0.308464 0.634385
vt 0.312697 0.653281
vt 0.308464 0.642749
vt 0.014603 0.534043
vt 0.018837 0.574766
vt 0.018837 0.583130
vt 0.312697 0.534043
vt 0.308464 0.574766
vt 0.308464 0.583130
vt 0.014603 0.474424
vt 0.018837 0.515147
vt 0.018837 0.523511
vt 0.312697 0.474424
vt 0.308464 0.515147
vt 0.308464 0.523511
vt 0.018837 0.455528
vt 0.018837 0.463893
vt 0.308464 0.455528
vt 0.308464 0.463893
vt 0.587505 0.963647
vt 0.583013 0.963647
vt 0.583013 0.674020
vt 0.587505 0.674020
vt 0.520108 0.963647
vt 0.515616 0.963647
vt 0.515616 0.674020
vt 0.520108 0.674020
vt 0.553807 0.963647
vt 0.549315 0.963647
vt 0.549315 0.674020
vt 0.553807 0.674020
vt 0.621203 0.963647
vt 0.616711 0.963647
vt 0.616711 0.674020
vt 0.621203 0.674020
vt 0.654901 0.963647
vt 0.650409 0.963647
vt 0.650409 0.674020
vt 0.654901 0.674020
vt 0.779269 0.304230
vt 0.779269 0.014603
vt 0.833561 0.014603
vt 0.833561 0.304230
vt 0.127315 0.682487
vt 0.135679 0.682487
vt 0.131807 0.736780
vt 0.127315 0.736780
vt 0.647200 0.355186
vt 0.647200 0.644814
vt 0.592781 0.644814
vt 0.592781 0.355186
vt 0.843531 0.644814
vt 0.843531 0.355186
vt 0.897824 0.355186
vt 0.897824 0.644814
vt 0.173250 0.736780
vt 0.164886 0.736780
vt 0.164886 0.682487
vt 0.169378 0.682487
vt 0.479949 0.355186
vt 0.479949 0.644814
vt 0.425530 0.644814
vt 0.425529 0.355186
vt 0.862768 0.304230
vt 0.862768 0.014603
vt 0.917060 0.014603
vt 0.917060 0.304230
vt 0.692472 0.728313
vt 0.684108 0.728313
vt 0.684108 0.674020
vt 0.688599 0.674020
vt 0.730826 0.355186
vt 0.730826 0.644814
vt 0.676407 0.644814
vt 0.676407 0.355186
vt 0.022967 0.736780
vt 0.014603 0.736780
vt 0.014603 0.682487
vt 0.019095 0.682487
vt 0.563575 0.355186
vt 0.563575 0.644814
vt 0.509155 0.644814
vt 0.509155 0.355186
vt 0.248391 0.736780
vt 0.240027 0.736780
vt 0.240027 0.682487
vt 0.244519 0.682487
vt 0.060538 0.736780
vt 0.052174 0.736780
vt 0.052174 0.682487
vt 0.056666 0.682487
vt 0.202457 0.682487
vt 0.210821 0.682487
vt 0.206948 0.736780
vt 0.202457 0.736780
vt 0.721678 0.674020
vt 0.730043 0.674020
vt 0.726170 0.728313
vt 0.721678 0.728313
s 0
f 16/1/1 2/2/1 4/3/1 17/4/1
f 17/5/2 4/6/2 8/7/2 21/8/2
f 35/9/2 36/10/2 42/11/2 48/12/2
f 25/13/3 6/14/3 2/15/3 16/16/3
f 3/17/4 7/18/4 5/19/4 1/20/4
f 8/21/5 4/22/5 2/23/5 6/24/5
f 21/25/6 8/26/6 10/27/6 29/28/6
f 8/26/6 6/29/6 11/30/6 10/27/6
f 28/31/6 5/32/6 12/33/6 36/34/6
f 5/32/6 7/35/6 9/36/6 12/33/6
f 6/29/6 25/37/6 33/38/6 11/30/6
f 25/37/6 26/39/6 34/40/6 33/38/6
f 26/39/6 27/41/6 35/42/6 34/40/6
f 27/41/6 28/31/6 36/34/6 35/42/6
f 7/35/6 24/43/6 32/44/6 9/36/6
f 24/43/6 23/45/6 31/46/6 32/44/6
f 23/45/6 22/47/6 30/48/6 31/46/6
f 22/47/6 21/25/6 29/28/6 30/48/6
f 5/49/3 28/50/3 13/51/3 1/52/3
f 28/50/3 27/53/3 14/54/3 13/51/3
f 27/53/3 26/55/3 15/56/3 14/54/3
f 26/55/3 25/13/3 16/16/3 15/56/3
f 29/57/3 10/58/3 40/59/3 43/60/3
f 9/61/3 32/62/3 37/63/3 38/64/3
f 32/62/3 31/65/3 45/66/3 37/63/3
f 36/10/2 12/67/2 39/68/2 42/11/2
f 3/69/2 20/70/2 24/71/2 7/72/2
f 20/70/2 19/73/2 23/74/2 24/71/2
f 19/73/2 18/75/2 22/76/2 23/74/2
f 18/75/2 17/5/2 21/8/2 22/76/2
f 1/77/1 13/78/1 20/79/1 3/80/1
f 13/78/1 14/81/1 19/82/1 20/79/1
f 14/81/1 15/83/1 18/84/1 19/82/1
f 15/83/1 16/1/1 17/4/1 18/84/1
f 50/85/7 51/86/7 72/87/7 69/88/7
f 61/89/2 62/90/2 81/91/2 82/92/2
f 56/93/4 53/94/4 74/95/4 75/96/4
f 57/97/2 58/98/2 77/99/2 78/100/2
f 52/101/4 49/102/4 70/103/4 71/104/4
f 11/105/2 33/106/2 46/107/2 41/108/2
f 12/109/5 9/110/5 38/111/5 39/112/5
f 30/113/3 29/57/3 43/60/3 44/114/3
f 33/106/2 34/115/2 47/116/2 46/107/2
f 10/117/4 11/118/4 41/119/4 40/120/4
f 31/65/3 30/113/3 44/114/3 45/66/3
f 34/115/2 35/9/2 48/12/2 47/116/2
f 43/121/6 40/122/6 50/123/6 49/124/6
f 40/122/6 41/125/6 51/126/6 50/123/6
f 41/125/6 46/127/6 52/128/6 51/126/6
f 46/127/6 43/121/6 49/124/6 52/128/6
f 38/129/6 37/130/6 54/131/6 53/132/6
f 37/130/6 42/133/6 55/134/6 54/131/6
f 42/133/6 39/135/6 56/136/6 55/134/6
f 39/135/6 38/129/6 53/132/6 56/136/6
f 37/130/6 45/137/6 58/138/6 57/139/6
f 45/137/6 48/140/6 59/141/6 58/138/6
f 48/140/6 42/133/6 60/142/6 59/141/6
f 42/133/6 37/130/6 57/139/6 60/142/6
f 45/137/6 44/143/6 62/144/6 61/145/6
f 44/143/6 47/146/6 63/147/6 62/144/6
f 47/146/6 48/140/6 64/148/6 63/147/6
f 48/140/6 45/137/6 61/145/6 64/148/6
f 44/143/6 43/121/6 66/149/6 65/150/6
f 43/121/6 46/127/6 67/151/6 66/149/6
f 46/127/6 47/146/6 68/152/6 67/151/6
f 47/146/6 44/143/6 65/150/6 68/152/6
f 70/153/6 69/154/6 72/155/6 71/156/6
f 74/157/6 73/158/6 76/159/6 75/160/6
f 78/161/6 77/162/6 80/163/6 79/164/6
f 82/165/6 81/166/6 84/167/6 83/168/6
f 86/169/6 85/170/6 88/171/6 87/172/6
f 60/173/4 57/174/4 78/175/4 79/176/4
f 65/177/2 66/178/2 85/179/2 86/180/2
f 54/181/7 55/182/7 76/183/7 73/184/7
f 64/185/4 61/186/4 82/187/4 83/188/4
f 51/189/3 52/190/3 71/191/3 72/192/3
f 58/193/7 59/194/7 80/195/7 77/196/7
f 68/197/4 65/198/4 86/199/4 87/200/4
f 55/201/3 56/202/3 75/203/3 76/204/3
f 62/205/7 63/206/7 84/207/7 81/208/7
f 59/209/3 60/210/3 79/211/3 80/212/3
f 66/213/7 67/214/7 88/215/7 85/216/7
f 63/217/3 64/218/3 83/219/3 84/220/3
f 67/221/3 68/222/3 87/223/3 88/224/3
f 49/225/2 50/226/2 69/227/2 70/228/2
f 53/229/2 54/230/2 73/231/2 74/232/2
